<svg xmlns="http://www.w3.org/2000/svg" xmlns:xlink="http://www.w3.org/1999/xlink" viewBox="0 0 446.37 446.37"><defs><style>.cls-1,.cls-16,.cls-2,.cls-25,.cls-4{stroke:#000;}.cls-1,.cls-11,.cls-13,.cls-14,.cls-15,.cls-16,.cls-17,.cls-2,.cls-24,.cls-25,.cls-4,.cls-5,.cls-6,.cls-7,.cls-8{stroke-miterlimit:10;}.cls-1{stroke-width:0.37px;fill:url(#Degradado_sin_nombre_190);}.cls-13,.cls-2,.cls-24{stroke-width:0.41px;}.cls-2{fill:url(#Degradado_sin_nombre_68);}.cls-3{fill:none;stroke-linecap:round;stroke-linejoin:round;stroke-width:11.25px;stroke-dasharray:65.05 43.36;}.cls-14,.cls-3,.cls-7,.cls-8{stroke:#fff;}.cls-14,.cls-26,.cls-27,.cls-4,.cls-7,.cls-8{fill:#fff;}.cls-5{fill:#050001;stroke:#050003;}.cls-5,.cls-6,.cls-7{stroke-width:0.99px;}.cls-6{fill:#00a31d;stroke:#00a31d;}.cls-8{stroke-width:0.98px;}.cls-9{fill:#313131;}.cls-10{fill:#4d404b;}.cls-11{fill:url(#Degradado_sin_nombre_25);stroke:url(#Degradado_sin_nombre_11);}.cls-12{fill:#ffde98;}.cls-13{fill:#00bc1d;stroke:#22ad00;}.cls-14,.cls-15{stroke-width:0.44px;}.cls-15{fill:#000501;stroke:#000500;}.cls-16{stroke-width:0.56px;}.cls-17{fill:#d12700;stroke:#ed1c24;stroke-width:0.25px;}.cls-18{fill:#797979;}.cls-19{fill:url(#Degradado_sin_nombre_25-2);}.cls-20{fill:#731b00;}.cls-21{fill:#050004;}.cls-22{fill:#000019;}.cls-23{fill:#452710;}.cls-24{fill:#faff84;stroke:#e0ff66;}.cls-25{fill:#050000;stroke-width:0.4px;}.cls-26{font-size:32.96px;}.cls-26,.cls-27{font-family:Ravie, Ravie;}.cls-27{font-size:10.29px;}</style><linearGradient id="Degradado_sin_nombre_190" x1="30.03" y1="334.7" x2="416.34" y2="111.66" gradientUnits="userSpaceOnUse"><stop offset="0.02" stop-color="#4b0055"/><stop offset="0.09" stop-color="#3f106c"/><stop offset="0.22" stop-color="#2039a7"/><stop offset="0.32" stop-color="#0859d5"/><stop offset="0.34" stop-color="#0675cb"/><stop offset="0.37" stop-color="#0393c1"/><stop offset="0.39" stop-color="#01a9b9"/><stop offset="0.41" stop-color="#00b7b5"/><stop offset="0.44" stop-color="#00bbb3"/><stop offset="0.46" stop-color="#00b8b4"/><stop offset="0.48" stop-color="#00aeb8"/><stop offset="0.5" stop-color="#009cbf"/><stop offset="0.51" stop-color="#0085c9"/><stop offset="0.53" stop-color="#0068d4"/><stop offset="0.58" stop-color="#006dd0"/><stop offset="0.65" stop-color="#007ac6"/><stop offset="0.71" stop-color="#0091b5"/><stop offset="0.77" stop-color="#00aaa2"/><stop offset="0.94" stop-color="#4b0055"/></linearGradient><linearGradient id="Degradado_sin_nombre_68" x1="29.18" y1="223.18" x2="417.18" y2="223.18" gradientUnits="userSpaceOnUse"><stop offset="0.38"/><stop offset="0.43" stop-color="#0a0013"/><stop offset="0.63" stop-color="#26004a"/><stop offset="0.79" stop-color="#3b0072"/><stop offset="0.92" stop-color="#48008b"/><stop offset="1" stop-color="#4d0094"/></linearGradient><linearGradient id="Degradado_sin_nombre_25" x1="173.46" y1="278" x2="338.5" y2="278" gradientUnits="userSpaceOnUse"><stop offset="0" stop-color="#00072a"/><stop offset="0.53" stop-color="#00082c"/><stop offset="0.54" stop-color="#00082c"/><stop offset="0.61" stop-color="#020e3b"/><stop offset="0.73" stop-color="#04164c"/><stop offset="0.85" stop-color="#051b57"/><stop offset="1" stop-color="#051c5a"/></linearGradient><linearGradient id="Degradado_sin_nombre_11" x1="172.96" y1="278" x2="339" y2="278" gradientUnits="userSpaceOnUse"><stop offset="0" stop-color="#00072a"/><stop offset="0.87" stop-color="#05004a"/><stop offset="1" stop-color="#05004c"/></linearGradient><linearGradient id="Degradado_sin_nombre_25-2" x1="237" y1="288" x2="268" y2="288" xlink:href="#Degradado_sin_nombre_25"/></defs><title>PIRATA2.0</title><g id="Capa_1" data-name="Capa 1"><circle class="cls-1" cx="223.18" cy="223.18" r="223"/></g><g id="Capa_2" data-name="Capa 2"><circle class="cls-2" cx="223.18" cy="223.18" r="194"/></g><g id="Capa_3" data-name="Capa 3"><ellipse class="cls-3" cx="223.43" cy="222.93" rx="206.84" ry="207.25"/></g><g id="Capa_22" data-name="Capa 22"><rect class="cls-4" x="316.68" y="194.68" width="36" height="83"/></g><g id="Capa_23" data-name="Capa 23"><polyline class="cls-5" points="317.18 270.18 352.68 270.18 352.68 254.68 317.18 254.68"/></g><g id="Capa_24" data-name="Capa 24"><polyline class="cls-5" points="317.18 244.18 352.68 244.18 352.68 228.68 317.18 228.68"/></g><g id="Capa_25" data-name="Capa 25"><path class="cls-5" d="M343.5,221.5s1-18,18-18c0,0,18,0,18,18" transform="translate(-26.82 -26.82)"/></g><g id="Capa_26" data-name="Capa 26"><path class="cls-6" d="M343.5,305.5s1,17,18,17,18-17,18-17Z" transform="translate(-26.82 -26.82)"/></g><g id="Capa_27" data-name="Capa 27"><rect class="cls-7" x="98.68" y="194.68" width="36" height="71"/><path class="cls-8" d="M161.5,292.5h-43s-3,27,23,29c0,0,26,3,26-29Z" transform="translate(-26.82 -26.82)"/></g><g id="Capa_33" data-name="Capa 33"><path class="cls-9" d="M137,322v5s-20,8-10,24c0,0,7,16,26,6,0,0,10-7,2-13,0,0-4-2-6,3s-8,4-8,4-6-2-6-5c0,0-3-9,9-10,0,0,3,1,4-6v-8" transform="translate(-26.82 -26.82)"/></g><g id="Capa_28" data-name="Capa 28"><rect class="cls-10" x="98.18" y="194.18" width="37" height="16"/></g><g id="Capa_29" data-name="Capa 29"><rect class="cls-10" x="98.18" y="228.18" width="37" height="16"/></g><g id="Capa_30" data-name="Capa 30"><rect class="cls-10" x="98.18" y="254.18" width="37" height="11"/></g><g id="Capa_31" data-name="Capa 31"><path class="cls-8" d="M125.5,221.5s0-17,18-18,18,18,18,18" transform="translate(-26.82 -26.82)"/></g><g id="Capa_6" data-name="Capa 6"><path class="cls-11" d="M173.5,210.5v110s-2,22,22,25h116s23,0,25-24v-21h2v-26h-2v-62Z" transform="translate(-26.82 -26.82)"/></g><g id="Capa_34" data-name="Capa 34"><circle class="cls-12" cx="213.18" cy="292.18" r="4"/></g><g id="Capa_35" data-name="Capa 35"><circle class="cls-12" cx="238.18" cy="292.18" r="4"/></g><g id="Capa_36" data-name="Capa 36"><circle class="cls-12" cx="213.18" cy="306.18" r="4"/></g><g id="Capa_37" data-name="Capa 37"><circle class="cls-12" cx="239.18" cy="306.18" r="4"/></g><g id="Capa_15" data-name="Capa 15"><path class="cls-13" d="M189,159l8-9,118,3s6,6,7,9,1,32,1,32l-137-3Z" transform="translate(-26.82 -26.82)"/></g><g id="Capa_16" data-name="Capa 16"><circle class="cls-14" cx="191.68" cy="138.68" r="7.5"/></g><g id="Capa_17" data-name="Capa 17"><circle class="cls-15" cx="194.18" cy="141.18" r="2"/></g><g id="Capa_18" data-name="Capa 18"><circle class="cls-16" cx="265.18" cy="139.18" r="10.5"/></g><g id="Capa_19" data-name="Capa 19"><path class="cls-16" d="M283.5,152.5l15,3h24s3,3-1,4h-21l-15-3-24-5Z" transform="translate(-26.82 -26.82)"/></g><g id="Capa_40" data-name="Capa 40"><circle class="cls-12" cx="240" cy="264" r="4" transform="translate(-76.59 445.34) rotate(-83.42)"/></g><g id="Capa_41" data-name="Capa 41"><circle class="cls-12" cx="238.18" cy="237.18" r="4"/></g><g id="Capa_42" data-name="Capa 42"><path class="cls-12" d="M248,344V245h4v99s0,1-2,1S248,344,248,344Z" transform="translate(-26.82 -26.82)"/></g><g id="Capa_43" data-name="Capa 43"><path class="cls-12" d="M255,344V245h4v99s0,1-2,1S255,344,255,344Z" transform="translate(-26.82 -26.82)"/></g><g id="Capa_44" data-name="Capa 44"><rect class="cls-12" x="216.18" y="305.18" width="21" height="2"/></g><g id="Capa_45" data-name="Capa 45"><rect class="cls-12" x="215.18" y="291.18" width="21" height="2"/></g><g id="Capa_46" data-name="Capa 46"><rect class="cls-12" x="215.18" y="236.18" width="21" height="2"/></g><g id="Capa_7" data-name="Capa 7"><path class="cls-17" d="M173.5,210.5s-9-36,14-52c0,0,7,0,5,7,0,0-3,18,3,15,0,0,15,9,19,7,0,0,19-9,26-8,0,0,11,2,13,5,0,0,7-4,11-4,0,0,7-3,18,1s21,9,22,8,7,2,15-9c0,0,2-5,2-17,0,0,6-8,12,3s5,25,5,25l-3,20-2,18s0,15-10,15-10,3-17-10c0,0,0,8-1,11,0,0-5,9-7,0l-1-4s0,12-4,15-13,8-22-1c0,0-5,9-10-1l-2-7s-1,8-3,8-6,1-6-11c0,0-3,18-17,16,0,0-16,3-12-18,0,0-6,14-9,12,0,0-3.83-1-1.19-10.36l.19-.64s-4,11-20,8c0,0-10-2-12-15C179.5,236.5,173.5,222.5,173.5,210.5Z" transform="translate(-26.82 -26.82)"/></g><g id="Capa_8" data-name="Capa 8"><path d="M235,200s10-4,18-4c0,0,6-1,14,5a15.39,15.39,0,0,1-8,2c-5,0-25-1-24-3" transform="translate(-26.82 -26.82)"/></g><g id="Capa_9" data-name="Capa 9"><path d="M172,274.32h56.68s-1-6.32,5.06-6.32h36.44s5.06,1.05,4,6.32H339v26.34H274.22s0,5.27-6.07,5.27H233.74s-4.58,1-5-4.39q0-.41,0-.87H172Z" transform="translate(-26.82 -26.82)"/></g><g id="Capa_38" data-name="Capa 38"><circle class="cls-12" cx="213.18" cy="278.18" r="4"/></g><g id="Capa_39" data-name="Capa 39"><circle class="cls-12" cx="238.18" cy="278.18" r="4"/></g><g id="Capa_10" data-name="Capa 10"><path class="cls-18" d="M228,300.67V273.3s-1-5.26,7.29-5.26h33.32s7.29-1.05,6.25,7.37v25.26s1,5.26-6.25,5.26h-35.4S228,307,228,300.67Z" transform="translate(-26.82 -26.82)"/></g><g id="Capa_47" data-name="Capa 47"><rect x="214.18" y="255.18" width="23" height="12"/></g><g id="Capa_48" data-name="Capa 48"><path class="cls-19" d="M240,285h24s4,0,4,3a2.94,2.94,0,0,1-3,3H240a3,3,0,0,1,0-6Z" transform="translate(-26.82 -26.82)"/></g><g id="Capa_12" data-name="Capa 12"><polygon class="cls-20" points="242.18 335.18 253.18 346.18 253.18 367.18 265.18 367.18 265.18 346.18 275.18 335.18 242.18 335.18"/></g><g id="Capa_11" data-name="Capa 11"><rect class="cls-21" x="241.18" y="319.18" width="35" height="16"/></g><g id="Capa_13" data-name="Capa 13"><path class="cls-22" d="M280,394v5s1,4,6,4c0,0,6,0,6-4v-5H280" transform="translate(-26.82 -26.82)"/></g><g id="Capa_14" data-name="Capa 14"><rect class="cls-23" x="180.18" y="319.18" width="36" height="7"/></g><g id="Capa_20" data-name="Capa 20"><path class="cls-24" d="M154,149l195,5s13-40-24-38c0,0-12-40-71-38,0,0-61-1-68,38C186,116,151,112,154,149Z" transform="translate(-26.82 -26.82)"/></g><g id="Capa_21" data-name="Capa 21"><path class="cls-25" d="M157.18,150.14,345.86,155s12.58-38.91-23.22-37c0,0-11.61-38.91-68.7-37,0,0-59-1-65.8,37C188.14,118,154.27,114.14,157.18,150.14Z" transform="translate(-26.82 -26.82)"/></g><g id="Capa_49" data-name="Capa 49"><text class="cls-26" transform="translate(214.86 91.78)">z</text></g><g id="Capa_51" data-name="Capa 51"><text class="cls-27" transform="translate(205.46 108.81)">ZLAUR</text></g></svg>