<?xml version="1.0" encoding="utf-8"?>
<!-- Generator: Adobe Illustrator 21.0.0, SVG Export Plug-In . SVG Version: 6.00 Build 0)  -->
<svg version="1.1" id="Capa_1" xmlns="http://www.w3.org/2000/svg" xmlns:xlink="http://www.w3.org/1999/xlink" x="0px" y="0px"
	 viewBox="0 0 1070 1080" style="enable-background:new 0 0 1070 1080;" xml:space="preserve">
<style type="text/css">
	.st0{fill:#FFFFFF;}
	.st1{fill:#FFFF00;}
	.st2{clip-path:url(#SVGID_2_);}
	.st3{clip-path:url(#SVGID_4_);fill:url(#SVGID_5_);}
	.st4{clip-path:url(#SVGID_7_);fill:none;stroke:#000000;stroke-width:0.367;stroke-miterlimit:10;}
	.st5{clip-path:url(#SVGID_9_);fill:url(#SVGID_10_);}
	.st6{clip-path:url(#SVGID_12_);fill:none;stroke:#000000;stroke-width:0.408;stroke-miterlimit:10;}
	
		.st7{clip-path:url(#SVGID_14_);fill:none;stroke:#FFFFFF;stroke-width:11.252;stroke-linecap:round;stroke-linejoin:round;stroke-dasharray:65.047,43.365;}
	.st8{clip-path:url(#SVGID_2_);fill:#FFFFFF;}
	.st9{clip-path:url(#SVGID_2_);fill:none;stroke:#000000;stroke-miterlimit:10;}
	.st10{clip-path:url(#SVGID_2_);fill:#050001;}
	.st11{clip-path:url(#SVGID_2_);fill:none;stroke:#050003;stroke-width:0.991;stroke-miterlimit:10;}
	.st12{clip-path:url(#SVGID_16_);fill:#050001;}
	.st13{clip-path:url(#SVGID_16_);fill:none;stroke:#050003;stroke-width:0.991;stroke-miterlimit:10;}
	.st14{clip-path:url(#SVGID_18_);fill:#00A31D;}
	.st15{clip-path:url(#SVGID_18_);fill:none;stroke:#00A31D;stroke-width:0.991;stroke-miterlimit:10;}
	.st16{clip-path:url(#SVGID_2_);fill:none;stroke:#FFFFFF;stroke-width:0.991;stroke-miterlimit:10;}
	.st17{clip-path:url(#SVGID_20_);fill:#FFFFFF;}
	.st18{clip-path:url(#SVGID_20_);fill:none;stroke:#FFFFFF;stroke-width:0.978;stroke-miterlimit:10;}
	.st19{clip-path:url(#SVGID_22_);fill:#313131;}
	.st20{clip-path:url(#SVGID_2_);fill:#4D404B;}
	.st21{clip-path:url(#SVGID_24_);fill:#FFFFFF;}
	.st22{clip-path:url(#SVGID_24_);fill:none;stroke:#FFFFFF;stroke-width:0.978;stroke-miterlimit:10;}
	.st23{clip-path:url(#SVGID_28_);fill:url(#SVGID_29_);}
	.st24{clip-path:url(#SVGID_31_);fill:#FFDE98;}
	.st25{clip-path:url(#SVGID_33_);fill:#FFDE98;}
	.st26{clip-path:url(#SVGID_35_);fill:#FFDE98;}
	.st27{clip-path:url(#SVGID_37_);fill:#FFDE98;}
	.st28{clip-path:url(#SVGID_39_);fill:#00BC1D;}
	.st29{clip-path:url(#SVGID_39_);fill:none;stroke:#22AD00;stroke-width:0.408;stroke-miterlimit:10;}
	.st30{clip-path:url(#SVGID_41_);fill:#FFFFFF;}
	.st31{clip-path:url(#SVGID_41_);fill:none;stroke:#FFFFFF;stroke-width:0.437;stroke-miterlimit:10;}
	.st32{clip-path:url(#SVGID_43_);fill:#000501;}
	.st33{clip-path:url(#SVGID_43_);fill:none;stroke:#000500;stroke-width:0.437;stroke-miterlimit:10;}
	.st34{clip-path:url(#SVGID_45_);}
	.st35{clip-path:url(#SVGID_45_);fill:none;stroke:#000000;stroke-width:0.556;stroke-miterlimit:10;}
	.st36{clip-path:url(#SVGID_47_);}
	.st37{clip-path:url(#SVGID_47_);fill:none;stroke:#000000;stroke-width:0.556;stroke-miterlimit:10;}
	.st38{clip-path:url(#SVGID_49_);fill:#FFDE98;}
	.st39{clip-path:url(#SVGID_51_);fill:#FFDE98;}
	.st40{clip-path:url(#SVGID_53_);fill:#FFDE98;}
	.st41{clip-path:url(#SVGID_55_);fill:#FFDE98;}
	.st42{clip-path:url(#SVGID_2_);fill:#FFDE98;}
	.st43{clip-path:url(#SVGID_57_);fill:#D12700;}
	.st44{clip-path:url(#SVGID_57_);fill:none;stroke:#ED1C24;stroke-width:0.25;stroke-miterlimit:10;}
	.st45{clip-path:url(#SVGID_59_);}
	.st46{clip-path:url(#SVGID_61_);}
	.st47{clip-path:url(#SVGID_63_);fill:#FFDE98;}
	.st48{clip-path:url(#SVGID_65_);fill:#FFDE98;}
	.st49{clip-path:url(#SVGID_67_);fill:#797979;}
	.st50{clip-path:url(#SVGID_2_);fill:#731B00;}
	.st51{clip-path:url(#SVGID_2_);fill:#050004;}
	.st52{clip-path:url(#SVGID_71_);fill:#000019;}
	.st53{clip-path:url(#SVGID_2_);fill:#452710;}
	.st54{clip-path:url(#SVGID_73_);fill:#FAFF84;}
	.st55{clip-path:url(#SVGID_73_);fill:none;stroke:#E0FF66;stroke-width:0.408;stroke-miterlimit:10;}
	.st56{clip-path:url(#SVGID_75_);fill:#050000;}
	.st57{clip-path:url(#SVGID_75_);fill:none;stroke:#000000;stroke-width:0.395;stroke-miterlimit:10;}
	.st58{font-family:'Ravie';}
	.st59{font-size:18.7628px;}
	.st60{font-size:5.8566px;}
</style>
<g>
	<g>
		<path class="st0" d="M60.6,477.8H78l-0.8,47.8l20.8-1.9l-1,16.6c-11.3,0-22.6-0.1-33.7-0.2L60.6,477.8z"/>
		<path class="st0" d="M133.3,481.8c3.5,2.8,6.4,6.6,8.5,11.3c2.1,4.7,3.1,10,3.1,15.7c0,5.8-1,11-3.1,15.7s-4.9,8.5-8.5,11.3
			c-3.5,2.8-7.5,4.2-11.8,4.2s-8.2-1.4-11.8-4.2c-3.5-2.8-6.3-6.6-8.5-11.3c-2.1-4.7-3.1-10-3.1-15.7c0-5.7,1-11,3.1-15.7
			c2.1-4.7,5-8.5,8.5-11.3c3.5-2.8,7.5-4.2,11.8-4.2S129.8,479,133.3,481.8z M113.7,508.7c0,9.5,3.6,17.5,7.9,17.4
			c4.3,0.1,7.9-7.9,7.9-17.4c0-9.4-3.6-17.5-7.9-17.4C117.2,491.3,113.6,499.3,113.7,508.7z"/>
		<path class="st0" d="M212.6,478.7c3.1,1.1,5.6,2.8,7.7,5.1s4.1,5,6.1,8.1l-11.5,6.2c0,0-7.2-10.1-12.7-5.4
			c-5.6,4.8,0.8,10.2,7.9,12.7c4,1.5,7,3.9,9,7.1s2.9,6.8,2.8,10.7c-0.2,3.8-1.5,7.3-4,10.4c-2.5,3.1-6.2,5.3-11.3,6.5
			c-7.5,1.7-16-1.4-24.3-9.9l8.2-11c0,0,10.2,13.6,15.8,8.8c5.6-4.7-1-9.7-7.9-12.7c-21.8-9.1-13.3-36.1,2.1-37.7
			C205.4,477.3,209.5,477.6,212.6,478.7z"/>
		<path class="st0" d="M226.5,478.6l37.1-1.4v16.9l-21.7,2.3l-0.2,9.7l16.7-2.9v12.4l-15.2,0.9l0.5,8.6l14.7-2.1l-3.8,14.9l-22.3,2
			L226.5,478.6z"/>
		<path class="st0" d="M293.6,475.8l18.7,0.2l0.5,64.1l-16.1,0.3l-16.4-29.3l-1,33.4l-13.6-0.2l-1.9-63.3l17.4-2.4l15.1,31.1
			L293.6,475.8z"/>
		<path class="st0" d="M317.3,478.4h52.6l-3.8,16.7h-15.4v44.7h-18.4v-44.7H313L317.3,478.4z"/>
		<path class="st0" d="M370.1,478.1h17.4l-1.1,62.1h-10.9L370.1,478.1z"/>
		<path class="st0" d="M390.4,483.4l15.1-2.9l8.9,16.4l9.1-19.3l16-1.6l-1.4,64l-14.1,0.3l-1.3-27.5l-7.6,13.6l-7.7-11.9l-0.8,29.7
			l-13.6-0.2L390.4,483.4z"/>
		<path class="st0" d="M474.8,481.8c3.5,2.8,6.4,6.6,8.5,11.3c2.1,4.7,3.1,10,3.1,15.7c0,5.8-1,11-3.1,15.7s-4.9,8.5-8.5,11.3
			c-3.5,2.8-7.5,4.2-11.8,4.2s-8.2-1.4-11.8-4.2c-3.5-2.8-6.3-6.6-8.5-11.3c-2.1-4.7-3.1-10-3.1-15.7c0-5.7,1-11,3.1-15.7
			c2.1-4.7,5-8.5,8.5-11.3c3.5-2.8,7.5-4.2,11.8-4.2S471.3,479,474.8,481.8z M455.2,508.7c0,9.5,3.6,17.5,7.9,17.4
			c4.3,0.1,7.9-7.9,7.9-17.4c0-9.4-3.6-17.5-7.9-17.4C458.8,491.3,455.1,499.3,455.2,508.7z"/>
		<path class="st0" d="M517,478.7c3.1,1.1,5.6,2.8,7.7,5.1c2.1,2.3,4.1,5,6.1,8.1l-11.5,6.2c0,0-7.2-10.1-12.7-5.4
			c-5.6,4.8,0.8,10.2,7.9,12.7c4,1.5,7,3.9,9,7.1c2,3.3,2.9,6.8,2.8,10.7c-0.2,3.8-1.5,7.3-4,10.4c-2.5,3.1-6.2,5.3-11.3,6.5
			c-7.5,1.7-16-1.4-24.3-9.9l8.2-11c0,0,10.2,13.6,15.8,8.8c5.6-4.7-1-9.7-7.9-12.7c-21.8-9.1-13.3-36.1,2.1-37.7
			C509.9,477.3,514,477.6,517,478.7z"/>
		<path class="st0" d="M531,529.8h13.5c0.1,9.3,0,13.1-10.2,16.3c3.1-3.5,4.3-5.9,3.5-7.1c-0.8-1.2-2.9-1.7-6.5-1.7L531,529.8z"/>
		<path class="st0" d="M579.6,541.3h-10.9l-5.4-61.2c4.1-1.1,8.6-1.8,13.4-2.1c4.8-0.3,9.2,0.2,13.3,1.6c4.1,1.3,7.4,3.7,9.7,7.3
			c2.3,3.6,3.1,8.7,2.5,15.3c-1.8,14.8-17.2,17.7-22.2,18.2L579.6,541.3z M580.9,507.5c7,1.5,16.6-18.7-1.5-18.5L580.9,507.5z"/>
		<path class="st0" d="M603.4,478.6l37.1-1.4v16.9l-21.7,2.3l-0.2,9.7l16.7-2.9v12.4l-15.2,0.9l0.5,8.6l14.7-2.1l-3.8,14.9l-22.3,2
			L603.4,478.6z"/>
		<path class="st0" d="M657,541.3H646l-5.4-61.4c4.1-1.1,8.6-1.8,13.3-2.1c4.8-0.3,9.2,0.2,13.3,1.6c4.1,1.3,7.4,3.8,9.7,7.4
			c2.3,3.6,3.1,8.7,2.4,15.4c-0.6,4-1.9,7.3-4.1,9.7c-2.1,2.5-4.6,4.3-7.3,5.5l16.6,16.9l-11.6,6.8c0,0-0.8-1-2.4-3
			c-1.6-2-3.4-4.3-5.4-6.9s-3.9-5-5.4-7.1c-1.6-2.1-2.5-3.3-2.6-3.8L657,541.3z M658.2,507.4c7,1.5,16.6-18.9-1.5-18.5L658.2,507.4z
			"/>
		<path class="st0" d="M717.3,481.8c3.5,2.8,6.4,6.6,8.5,11.3c2.1,4.7,3.1,10,3.1,15.7c0,5.8-1,11-3.1,15.7
			c-2.1,4.7-4.9,8.5-8.5,11.3c-3.5,2.8-7.5,4.2-11.8,4.2s-8.2-1.4-11.8-4.2c-3.5-2.8-6.3-6.6-8.5-11.3c-2.1-4.7-3.1-10-3.1-15.7
			c0-5.7,1-11,3.1-15.7c2.1-4.7,5-8.5,8.5-11.3c3.5-2.8,7.5-4.2,11.8-4.2S713.8,479,717.3,481.8z M697.7,508.7
			c0,9.5,3.6,17.5,7.9,17.4c4.3,0.1,7.9-7.9,7.9-17.4c0-9.4-3.6-17.5-7.9-17.4C701.3,491.3,697.6,499.3,697.7,508.7z"/>
		<path class="st0" d="M761.9,481.1l21.7-3.3l18.7,62.2l-16.8,4.2l-6.6-29.2l-7.4,0.3l-2.8,24.8l-21-0.7L761.9,481.1z M772.3,493.4
			l-1.9,15h7.5l-2.5-16.5L772.3,493.4z"/>
		<path class="st0" d="M814.9,476.7c0,1.3-0.1,3.5-0.3,6.5c-0.2,3.6-0.4,7.8-0.6,12.5c-0.2,4.7-0.1,9.3,0.2,13.8
			c0.3,4.5,1,8.3,2.1,11.4c1.1,3.1,2.7,4.8,4.9,5.1c2.3,0.1,3.9-1.1,5-3.7s1.7-6,2-10.2c0.3-4.1,0.3-8.4,0.1-12.8
			c-0.2-4.4-0.4-8.4-0.7-11.9c-0.3-3.1-0.4-5.3-0.4-6.6l14.8,2.7c0,3.7,0.1,7.7,0.3,11.9c0.3,5.6,0.4,11.1,0.3,16.6
			c0,5.5-0.6,10.5-1.8,15s-3.1,8.1-6.1,10.8s-7.1,3.9-12.6,3.8c-4.7-0.2-8.5-1.5-11.4-3.9c-2.9-2.5-5.2-5.6-6.7-9.5
			c-4.8-11.6-4.4-28.4-4.1-40.5c0.1-2.7,0.1-5.1,0.1-7.2L814.9,476.7z M827.9,464.5l-5,10l-3.8,0l1.1-9.9L827.9,464.5z"/>
		<path class="st0" d="M875.4,475.8L894,476l0.5,64.1l-16.1,0.3l-16.4-29.3l-1,33.4l-13.6-0.2l-1.9-63.3l17.4-2.4l15.1,31.1
			L875.4,475.8z"/>
		<path class="st0" d="M943.1,475.8l18.7,0.2l0.5,64.1l-16.1,0.3l-16.4-29.3l-1,33.4l-13.6-0.2l-1.9-63.3l17.4-2.4l15.1,31.1
			L943.1,475.8z"/>
		<path class="st0" d="M997.6,481.8c3.5,2.8,6.4,6.6,8.5,11.3c2.1,4.7,3.1,10,3.1,15.7c0,5.8-1,11-3.1,15.7
			c-2.1,4.7-4.9,8.5-8.5,11.3c-3.5,2.8-7.5,4.2-11.8,4.2s-8.2-1.4-11.8-4.2c-3.5-2.8-6.3-6.6-8.5-11.3c-2.1-4.7-3.1-10-3.1-15.7
			c0-5.7,1-11,3.1-15.7c2.1-4.7,5-8.5,8.5-11.3c3.5-2.8,7.5-4.2,11.8-4.2S994.1,479,997.6,481.8z M977.9,508.7
			c0,9.5,3.6,17.5,7.9,17.4c4.3,0.1,7.9-7.9,7.9-17.4c0-9.4-3.6-17.5-7.9-17.4C981.5,491.3,977.9,499.3,977.9,508.7z"/>
		<path class="st0" d="M197.7,577.7c3.1,1.1,5.6,2.8,7.7,5.1s4.1,5,6.1,8.1l-11.5,6.2c0,0-7.2-10.1-12.7-5.4
			c-5.6,4.8,0.8,10.2,7.9,12.7c4,1.5,7,3.9,9,7.1c2,3.3,2.9,6.8,2.8,10.7s-1.5,7.3-4,10.4c-2.5,3.1-6.2,5.3-11.3,6.5
			c-7.5,1.7-16-1.4-24.3-9.9l8.2-11c0,0,10.2,13.6,15.8,8.8c5.6-4.7-1-9.7-7.9-12.7c-21.8-9.1-13.3-36.1,2.1-37.7
			C190.6,576.3,194.7,576.7,197.7,577.7z"/>
		<path class="st0" d="M211.7,577.7l37.1-1.4v16.9l-21.7,2.3l-0.2,9.7l16.7-2.9v12.4l-15.2,0.9l0.5,8.6l14.7-2.1l-3.8,14.9l-22.3,2
			L211.7,577.7z"/>
		<path class="st0" d="M292,573.3h16.7l1.6,66.7l-13.2,2.7l-2-27.4l-9.5,1.9l0.6,19.3l-13.2,2.7l-5.4-61.4h16.7l0.8,24.1l8.9-1.8
			L292,573.3z"/>
		<path class="st0" d="M324.7,580.2l21.7-3.3l18.7,62.2l-16.8,4.2l-6.6-29.2l-7.4,0.3l-2.8,24.8l-21-0.7L324.7,580.2z M335.1,592.4
			l-1.9,15h7.5l-2.5-16.5L335.1,592.4z"/>
		<path class="st0" d="M383.8,577.5c8.3-1,15.6-0.4,21.8,2c6.2,2.4,10.9,6.3,13.9,11.9c3,5.6,3.8,12.7,2.3,21.4
			c-1,5.1-2.9,9.3-5.6,12.5c-2.7,3.2-5.8,5.6-9.2,7.4c-3.4,1.7-6.8,2.9-10,3.6c-3.3,0.7-6,1-8.1,1.1l-3.3,0.1L383.8,577.5z
			 M398.1,626.7l1.8-1.7c1.2-1.2,2.5-2.7,3.8-4.7c3.8-5.9,6.1-15.1-6-24L398.1,626.7z"/>
		<path class="st0" d="M424.2,577.7l37.1-1.4v16.9l-21.7,2.3l-0.2,9.7l16.7-2.9v12.4l-15.2,0.9l0.5,8.6l14.7-2.1l-3.8,14.9l-22.3,2
			L424.2,577.7z"/>
		<path class="st0" d="M491.8,577.7c3.1,1.1,5.6,2.8,7.7,5.1s4.1,5,6.1,8.1l-11.5,6.2c0,0-7.2-10.1-12.7-5.4
			c-5.6,4.8,0.8,10.2,7.9,12.7c4,1.5,7,3.9,9,7.1c2,3.3,2.9,6.8,2.8,10.7s-1.5,7.3-4,10.4c-2.5,3.1-6.2,5.3-11.3,6.5
			c-7.5,1.7-16-1.4-24.3-9.9l8.2-11c0,0,10.2,13.6,15.8,8.8c5.6-4.7-1-9.7-7.9-12.7c-21.8-9.1-13.3-36.1,2.1-37.7
			C484.7,576.3,488.8,576.7,491.8,577.7z"/>
		<path class="st0" d="M514.7,580.2l21.7-3.3l18.7,62.2l-16.8,4.2l-6.6-29.2l-7.4,0.3l-2.8,24.8l-21-0.7L514.7,580.2z M525.1,592.4
			l-1.9,15h7.5l-2.5-16.5L525.1,592.4z"/>
		<path class="st0" d="M567.5,640.3h-10.9l-5.4-61.4c4.1-1.1,8.6-1.8,13.3-2.1c4.8-0.3,9.2,0.2,13.3,1.6c4.1,1.3,7.4,3.8,9.7,7.4
			c2.3,3.6,3.1,8.7,2.4,15.4c-0.6,4-1.9,7.3-4.1,9.7c-2.1,2.5-4.6,4.3-7.3,5.5l16.6,16.9l-11.6,6.8c0,0-0.8-1-2.4-3
			c-1.6-2-3.4-4.3-5.4-6.9s-3.9-5-5.4-7.1c-1.6-2.1-2.5-3.3-2.6-3.8L567.5,640.3z M568.8,606.5c7,1.5,16.6-18.9-1.5-18.5
			L568.8,606.5z"/>
		<path class="st0" d="M610.4,640.3h-10.9l-5.4-61.4c4.1-1.1,8.6-1.8,13.3-2.1c4.8-0.3,9.2,0.2,13.3,1.6c4.1,1.3,7.4,3.8,9.7,7.4
			c2.3,3.6,3.1,8.7,2.4,15.4c-0.6,4-1.9,7.3-4.1,9.7c-2.1,2.5-4.6,4.3-7.3,5.5l16.6,16.9l-11.6,6.8c0,0-0.8-1-2.4-3
			c-1.6-2-3.4-4.3-5.4-6.9s-3.9-5-5.4-7.1c-1.6-2.1-2.5-3.3-2.6-3.8L610.4,640.3z M611.7,606.5c7,1.5,16.6-18.9-1.5-18.5
			L611.7,606.5z"/>
		<path class="st0" d="M670.8,580.8c3.5,2.8,6.4,6.6,8.5,11.3c2.1,4.7,3.1,10,3.1,15.7c0,5.8-1,11-3.1,15.7
			c-2.1,4.7-4.9,8.5-8.5,11.3c-3.5,2.8-7.5,4.2-11.8,4.2s-8.2-1.4-11.8-4.2c-3.5-2.8-6.3-6.6-8.5-11.3c-2.1-4.7-3.1-10-3.1-15.7
			c0-5.7,1-11,3.1-15.7c2.1-4.7,5-8.5,8.5-11.3c3.5-2.8,7.5-4.2,11.8-4.2S667.3,578,670.8,580.8z M651.2,607.8
			c0,9.5,3.6,17.5,7.9,17.4c4.3,0.1,7.9-7.9,7.9-17.4c0-9.4-3.6-17.5-7.9-17.4C654.7,590.3,651.1,598.3,651.2,607.8z"/>
		<path class="st0" d="M682.6,576.8H700l-0.8,47.8l20.8-1.9l-1,16.6c-11.3,0-22.6-0.1-33.7-0.2L682.6,576.8z"/>
		<path class="st0" d="M722.9,576.8h17.4l-0.8,47.8l20.8-1.9l-1,16.6c-11.3,0-22.6-0.1-33.7-0.2L722.9,576.8z"/>
		<path class="st0" d="M774.7,580.2l21.7-3.3l18.7,62.2l-16.8,4.2l-6.6-29.2l-7.4,0.3l-2.8,24.8l-21-0.7L774.7,580.2z M785.1,592.4
			l-1.9,15h7.5l-2.5-16.5L785.1,592.4z"/>
		<path class="st0" d="M815.3,577.5c8.3-1,15.6-0.4,21.8,2c6.2,2.4,10.9,6.3,13.9,11.9c3,5.6,3.8,12.7,2.3,21.4
			c-1,5.1-2.9,9.3-5.6,12.5c-2.7,3.2-5.8,5.6-9.2,7.4c-3.4,1.7-6.8,2.9-10,3.6c-3.3,0.7-6,1-8.1,1.1l-3.3,0.1L815.3,577.5z
			 M829.6,626.7l1.8-1.7c1.2-1.2,2.5-2.7,3.8-4.7c3.8-5.9,6.1-15.1-6-24L829.6,626.7z"/>
		<path class="st0" d="M890.8,580.8c3.5,2.8,6.4,6.6,8.5,11.3c2.1,4.7,3.1,10,3.1,15.7c0,5.8-1,11-3.1,15.7
			c-2.1,4.7-4.9,8.5-8.5,11.3c-3.5,2.8-7.5,4.2-11.8,4.2s-8.2-1.4-11.8-4.2c-3.5-2.8-6.3-6.6-8.5-11.3c-2.1-4.7-3.1-10-3.1-15.7
			c0-5.7,1-11,3.1-15.7c2.1-4.7,5-8.5,8.5-11.3c3.5-2.8,7.5-4.2,11.8-4.2S887.3,578,890.8,580.8z M871.2,607.8
			c0,9.5,3.6,17.5,7.9,17.4c4.3,0.1,7.9-7.9,7.9-17.4c0-9.4-3.6-17.5-7.9-17.4C874.8,590.3,871.1,598.3,871.2,607.8z"/>
		<path class="st0" d="M320.6,676.7l37.1-1.4v16.9l-21.7,2.3l-0.2,9.7l16.7-2.9v12.4l-15.2,0.9l0.5,8.6l14.7-2.1l-3.8,14.9l-22.3,2
			L320.6,676.7z"/>
		<path class="st0" d="M388.2,676.8c3.1,1.1,5.6,2.8,7.7,5.1s4.1,5,6.1,8.1l-11.5,6.2c0,0-7.2-10.1-12.7-5.4
			c-5.6,4.8,0.8,10.2,7.9,12.7c4,1.5,7,3.9,9,7.1c2,3.3,2.9,6.8,2.8,10.7s-1.5,7.3-4,10.4c-2.5,3.1-6.2,5.3-11.3,6.5
			c-7.5,1.7-16-1.4-24.3-9.9l8.2-11c0,0,10.2,13.6,15.8,8.8c5.6-4.7-1-9.7-7.9-12.7c-21.8-9.1-13.3-36.1,2.1-37.7
			C381.1,675.3,385.2,675.7,388.2,676.8z"/>
		<path class="st0" d="M406.5,676.4h52.6l-3.8,16.7h-15.4v44.7h-18.4v-44.7h-19.3L406.5,676.4z"/>
		<path class="st0" d="M464.2,679.2l21.7-3.3l18.7,62.2l-16.8,4.2l-6.6-29.2l-7.4,0.3l-2.7,24.8l-21-0.7L464.2,679.2z M474.6,691.4
			l-1.9,15h7.5l-2.5-16.5L474.6,691.4z M481.7,662.5l-5,10l-3.7,0l1.1-9.9L481.7,662.5z"/>
		<path class="st0" d="M554.4,697.3c-3.5-2.8-6.5-3.9-9-3.2c-2.5,0.6-4.5,2.3-5.9,5c-1.4,2.7-2.2,5.6-2.3,8.9
			c-0.2,3.3,0.4,6.1,1.5,8.6c1.2,2.5,3.1,3.8,5.8,4c2.7,0.2,6.2-1.3,10.5-4.8l3.8,19.9c-6.8,2.6-12.7,3.2-17.5,1.9
			c-4.8-1.3-8.6-4-11.4-8s-4.6-8.7-5.5-14c-0.8-5.4-0.7-10.7,0.4-16s3.1-10.1,6-14.2c2.9-4.1,6.8-6.9,11.6-8.4
			c4.8-1.5,10.4-1.1,17,1.2L554.4,697.3z"/>
		<path class="st0" d="M559.7,675.8h17.4l-0.8,47.8l20.8-1.9l-1,16.6c-11.3,0-22.6-0.1-33.7-0.2L559.7,675.8z"/>
		<path class="st0" d="M611.5,679.2l21.7-3.3l18.7,62.2l-16.8,4.2l-6.6-29.2l-7.4,0.3l-2.8,24.8l-21-0.7L611.5,679.2z M621.9,691.4
			l-1.9,15h7.5l-2.5-16.5L621.9,691.4z"/>
		<path class="st0" d="M682.5,676.8c3.1,1.1,5.6,2.8,7.7,5.1s4.1,5,6.1,8.1l-11.5,6.2c0,0-7.2-10.1-12.7-5.4
			c-5.6,4.8,0.8,10.2,7.9,12.7c4,1.5,7,3.9,9,7.1c2,3.3,2.9,6.8,2.8,10.7s-1.5,7.3-4,10.4c-2.5,3.1-6.2,5.3-11.3,6.5
			c-7.5,1.7-16-1.4-24.3-9.9l8.2-11c0,0,10.2,13.6,15.8,8.8c5.6-4.7-1-9.7-7.9-12.7c-21.8-9.1-13.3-36.1,2.1-37.7
			C675.3,675.3,679.4,675.7,682.5,676.8z"/>
		<path class="st0" d="M696.5,676.7l37.1-1.4v16.9l-21.7,2.3l-0.2,9.7l16.7-2.9v12.4l-15.2,0.9l0.5,8.6l14.7-2.1l-3.8,14.9l-22.3,2
			L696.5,676.7z"/>
		<path class="st0" d="M736,740.4c-1.5-1.4-2.3-3.2-2.3-5.2s0.8-3.8,2.3-5.2c1.5-1.5,3.3-2.2,5.5-2.2s3.9,0.7,5.4,2.2
			c1.5,1.4,2.3,3.2,2.3,5.2s-0.8,3.8-2.3,5.2c-1.5,1.5-3.3,2.2-5.4,2.2S737.5,741.9,736,740.4z"/>
		<path class="st0" d="M238.2,874.3h16.6l8.7,40.2l7.6-37.1l16.5-2.5l-14.9,61.4H270h-14h-2.6L238.2,874.3z"/>
		<path class="st0" d="M302.9,872.8c0,1.3-0.1,3.5-0.3,6.5c-0.2,3.6-0.4,7.8-0.6,12.5s-0.1,9.3,0.2,13.8s1,8.3,2.1,11.4
			c1.1,3.1,2.7,4.8,5,5.1c2.3,0.1,3.9-1.1,5-3.7c1.1-2.6,1.7-6,2-10.2c0.3-4.1,0.3-8.4,0.1-12.8c-0.2-4.4-0.4-8.4-0.7-11.9
			c-0.3-3.1-0.4-5.3-0.4-6.6l14.8,2.7c0,3.7,0.1,7.7,0.3,11.9c0.3,5.6,0.4,11.1,0.3,16.6c0,5.5-0.6,10.5-1.8,15s-3.1,8.1-6.1,10.8
			s-7.1,3.9-12.6,3.8c-4.7-0.2-8.5-1.5-11.4-3.9c-2.9-2.5-5.2-5.6-6.7-9.5c-4.8-11.6-4.4-28.4-4.1-40.5c0.1-2.7,0.1-5.1,0.1-7.2
			L302.9,872.8z"/>
		<path class="st0" d="M330.9,874.7l37.1-1.4v16.9l-21.7,2.3l-0.2,9.7l16.7-2.9v12.4l-15.2,0.9l0.5,8.6l14.7-2.1L359,934l-22.3,2
			L330.9,874.7z"/>
		<path class="st0" d="M368.1,873.8h17.4l-0.8,47.8l20.8-1.9l-1,16.6c-11.3,0-22.6-0.1-33.7-0.2L368.1,873.8z"/>
		<path class="st0" d="M399,874.3h16.6l8.7,40.2l7.6-37.1l16.5-2.5l-14.9,61.4h-2.6h-14h-2.6L399,874.3z"/>
		<path class="st0" d="M448.5,874.7l37.1-1.4v16.9l-21.7,2.3l-0.2,9.7l16.7-2.9v12.4l-15.2,0.9l0.5,8.6l14.7-2.1l-3.8,14.9l-22.3,2
			L448.5,874.7z"/>
		<path class="st0" d="M520.6,937.3h-10.9l-5.4-61.2c4.1-1.1,8.6-1.8,13.4-2.1c4.8-0.3,9.2,0.2,13.3,1.6c4.1,1.3,7.4,3.7,9.7,7.3
			c2.3,3.6,3.1,8.7,2.5,15.3c-1.8,14.8-17.2,17.7-22.2,18.2L520.6,937.3z M521.9,903.6c7,1.5,16.6-18.7-1.5-18.5L521.9,903.6z"/>
		<path class="st0" d="M560.7,937.3h-10.9l-5.4-61.4c4.1-1.1,8.6-1.8,13.3-2.1c4.8-0.3,9.2,0.2,13.3,1.6c4.1,1.3,7.4,3.8,9.7,7.4
			c2.3,3.6,3.1,8.7,2.4,15.4c-0.6,4-1.9,7.3-4.1,9.7c-2.1,2.5-4.6,4.3-7.3,5.5l16.6,16.9l-11.6,6.8c0,0-0.8-1-2.4-3
			c-1.6-2-3.4-4.3-5.4-6.9s-3.9-5-5.4-7.1s-2.5-3.3-2.6-3.8L560.7,937.3z M561.9,903.5c7,1.5,16.6-18.9-1.5-18.5L561.9,903.5z"/>
		<path class="st0" d="M621.1,877.8c3.5,2.8,6.4,6.6,8.5,11.3c2.1,4.7,3.1,10,3.1,15.7c0,5.8-1,11-3.1,15.7
			c-2.1,4.7-4.9,8.5-8.5,11.3c-3.5,2.8-7.5,4.2-11.8,4.2s-8.2-1.4-11.8-4.2c-3.5-2.8-6.3-6.6-8.5-11.3c-2.1-4.7-3.1-10-3.1-15.7
			c0-5.7,1-11,3.1-15.7c2.1-4.7,5-8.5,8.5-11.3c3.5-2.8,7.5-4.2,11.8-4.2S617.6,875.1,621.1,877.8z M601.4,904.8
			c0,9.5,3.6,17.5,7.9,17.4c4.3,0.1,7.9-7.9,7.9-17.4c0-9.4-3.6-17.5-7.9-17.4C605,887.3,601.4,895.4,601.4,904.8z"/>
		<path class="st0" d="M662.7,871.8l18.7,0.2l0.5,64.1l-16.1,0.3l-16.4-29.3l-1,33.4l-13.6-0.2l-1.9-63.3l17.4-2.4l15.1,31.1
			L662.7,871.8z"/>
		<path class="st0" d="M686.3,874.5H739l-3.8,16.7h-15.4v44.7h-18.4v-44.7H682L686.3,874.5z"/>
		<path class="st0" d="M773,877.8c3.5,2.8,6.4,6.6,8.5,11.3c2.1,4.7,3.1,10,3.1,15.7c0,5.8-1,11-3.1,15.7c-2.1,4.7-4.9,8.5-8.5,11.3
			c-3.5,2.8-7.5,4.2-11.8,4.2s-8.2-1.4-11.8-4.2c-3.5-2.8-6.3-6.6-8.5-11.3c-2.1-4.7-3.1-10-3.1-15.7c0-5.7,1-11,3.1-15.7
			c2.1-4.7,5-8.5,8.5-11.3c3.5-2.8,7.5-4.2,11.8-4.2S769.5,875.1,773,877.8z M753.3,904.8c0,9.5,3.6,17.5,7.9,17.4
			c4.3,0.1,7.9-7.9,7.9-17.4c0-9.4-3.6-17.5-7.9-17.4C756.9,887.3,753.3,895.4,753.3,904.8z"/>
		<path class="st0" d="M787,938.5c-1.5-1.5-2.3-3.2-2.3-5.2s0.8-3.8,2.3-5.2c1.5-1.4,3.3-2.2,5.5-2.2s3.9,0.7,5.4,2.2
			c1.5,1.5,2.3,3.2,2.3,5.2s-0.8,3.8-2.3,5.2c-1.5,1.4-3.3,2.2-5.4,2.2S788.6,939.9,787,938.5z"/>
		<path class="st0" d="M802.7,938.5c-1.5-1.5-2.3-3.2-2.3-5.2s0.8-3.8,2.3-5.2c1.5-1.4,3.3-2.2,5.5-2.2s3.9,0.7,5.4,2.2
			c1.5,1.5,2.3,3.2,2.3,5.2s-0.8,3.8-2.3,5.2c-1.5,1.4-3.3,2.2-5.4,2.2S804.2,939.9,802.7,938.5z"/>
		<path class="st0" d="M818.4,938.5c-1.5-1.5-2.3-3.2-2.3-5.2s0.8-3.8,2.3-5.2c1.5-1.4,3.3-2.2,5.5-2.2s3.9,0.7,5.4,2.2
			c1.5,1.5,2.3,3.2,2.3,5.2s-0.8,3.8-2.3,5.2c-1.5,1.4-3.3,2.2-5.4,2.2S819.9,939.9,818.4,938.5z"/>
	</g>
	<g>
		<path class="st1" d="M34.1,405.2l499.3-385l0.1-0.1c5.2-4,12.3-3.8,17.2,0.1l480.3,380l0.1,0.1c2.5,2,3.8,5,3.8,8l-4,640.3l0,0.1
			c0,3.4-2.8,6.1-6.2,6.1l-979.5-6.2l979.5-6.2l-6.2,6.2l-4-640.3l3.9,8l-485-374l17.3,0L56.4,433.6c-7.8,6.2-19.2,4.9-25.3-3
			c-6.2-7.8-4.9-19.2,3-25.3C34,405.3,34.1,405.2,34.1,405.2z"/>
	</g>
	<g>
		<g>
			<g>
				<defs>
					<rect id="SVGID_1_" x="392.7" y="153.1" width="284.6" height="284.6"/>
				</defs>
				<clipPath id="SVGID_2_">
					<use xlink:href="#SVGID_1_"  style="overflow:visible;"/>
				</clipPath>
				<g class="st2">
					<defs>
						<path id="SVGID_3_" d="M408.1,295.4c0,70.1,56.8,126.9,126.9,126.9s126.9-56.8,126.9-126.9c0-70.1-56.8-126.9-126.9-126.9
							S408.1,225.3,408.1,295.4"/>
					</defs>
					<clipPath id="SVGID_4_">
						<use xlink:href="#SVGID_3_"  style="overflow:visible;"/>
					</clipPath>
					
						<linearGradient id="SVGID_5_" gradientUnits="userSpaceOnUse" x1="0.1574" y1="-1.3783" x2="0.7266" y2="-1.3783" gradientTransform="matrix(386.3118 -223.0372 -223.0372 -386.3118 56.8441 -138.4814)">
						<stop  offset="0" style="stop-color:#4B0055"/>
						<stop  offset="2.116400e-02" style="stop-color:#4B0055"/>
						<stop  offset="8.617450e-02" style="stop-color:#3F106C"/>
						<stop  offset="0.2216" style="stop-color:#2039A6"/>
						<stop  offset="0.3209" style="stop-color:#0859D5"/>
						<stop  offset="0.34" style="stop-color:#0675CB"/>
						<stop  offset="0.3656" style="stop-color:#0393C1"/>
						<stop  offset="0.3906" style="stop-color:#01A9B9"/>
						<stop  offset="0.4146" style="stop-color:#00B7B5"/>
						<stop  offset="0.4365" style="stop-color:#00BBB3"/>
						<stop  offset="0.4596" style="stop-color:#00B8B4"/>
						<stop  offset="0.4786" style="stop-color:#00AEB8"/>
						<stop  offset="0.4961" style="stop-color:#009CBF"/>
						<stop  offset="0.5126" style="stop-color:#0084C9"/>
						<stop  offset="0.5274" style="stop-color:#0068D4"/>
						<stop  offset="0.5828" style="stop-color:#006DD0"/>
						<stop  offset="0.6454" style="stop-color:#007AC6"/>
						<stop  offset="0.7111" style="stop-color:#0091B5"/>
						<stop  offset="0.7672" style="stop-color:#00AAA2"/>
						<stop  offset="0.9365" style="stop-color:#4B0055"/>
						<stop  offset="1" style="stop-color:#4B0055"/>
					</linearGradient>
					<polygon class="st3" points="298.1,231.9 598.5,58.5 771.9,358.8 471.5,532.2 					"/>
				</g>
				<g class="st2">
					<defs>
						<rect id="SVGID_6_" x="392.7" y="153.1" width="284.6" height="284.6"/>
					</defs>
					<clipPath id="SVGID_7_">
						<use xlink:href="#SVGID_6_"  style="overflow:visible;"/>
					</clipPath>
					<circle class="st4" cx="535" cy="295.4" r="126.9"/>
				</g>
				<g class="st2">
					<defs>
						<path id="SVGID_8_" d="M424.6,295.4c0,61,49.4,110.4,110.4,110.4s110.4-49.4,110.4-110.4c0-61-49.4-110.4-110.4-110.4
							S424.6,234.4,424.6,295.4"/>
					</defs>
					<clipPath id="SVGID_9_">
						<use xlink:href="#SVGID_8_"  style="overflow:visible;"/>
					</clipPath>
					
						<linearGradient id="SVGID_10_" gradientUnits="userSpaceOnUse" x1="0.9499" y1="-1.4056" x2="1.5191" y2="-1.4056" gradientTransform="matrix(388 0 0 -388 56 -250)">
						<stop  offset="0" style="stop-color:#000000"/>
						<stop  offset="0.3757" style="stop-color:#000000"/>
						<stop  offset="0.4365" style="stop-color:#0A0013"/>
						<stop  offset="0.6269" style="stop-color:#27004A"/>
						<stop  offset="0.7911" style="stop-color:#3B0072"/>
						<stop  offset="0.9209" style="stop-color:#48008B"/>
						<stop  offset="1" style="stop-color:#4D0094"/>
					</linearGradient>
					<rect x="424.6" y="184.9" class="st5" width="220.8" height="220.8"/>
				</g>
				<g class="st2">
					<defs>
						<rect id="SVGID_11_" x="392.7" y="153.1" width="284.6" height="284.6"/>
					</defs>
					<clipPath id="SVGID_12_">
						<use xlink:href="#SVGID_11_"  style="overflow:visible;"/>
					</clipPath>
					<circle class="st6" cx="535" cy="295.4" r="110.4"/>
				</g>
				<g class="st2">
					<defs>
						<rect id="SVGID_13_" x="392.7" y="153.1" width="284.6" height="284.6"/>
					</defs>
					<clipPath id="SVGID_14_">
						<use xlink:href="#SVGID_13_"  style="overflow:visible;"/>
					</clipPath>
					<ellipse class="st7" cx="535.1" cy="295.2" rx="117.7" ry="118"/>
				</g>
				<rect x="588.2" y="279.1" class="st8" width="20.5" height="47.2"/>
				<rect x="588.2" y="279.1" class="st9" width="20.5" height="47.2"/>
				<polyline class="st10" points="588.5,322.1 608.7,322.1 608.7,313.3 588.5,313.3 				"/>
				<polyline class="st11" points="588.5,322.1 608.7,322.1 608.7,313.3 588.5,313.3 				"/>
				<polyline class="st10" points="588.5,307.3 608.7,307.3 608.7,298.5 588.5,298.5 				"/>
				<polyline class="st11" points="588.5,307.3 608.7,307.3 608.7,298.5 588.5,298.5 				"/>
				<g class="st2">
					<defs>
						<rect id="SVGID_15_" x="392.7" y="153.1" width="284.6" height="284.6"/>
					</defs>
					<clipPath id="SVGID_16_">
						<use xlink:href="#SVGID_15_"  style="overflow:visible;"/>
					</clipPath>
					<path class="st12" d="M588.2,279.1c0,0,0.6-10.2,10.2-10.2c0,0,10.2,0,10.2,10.2"/>
					<path class="st13" d="M588.2,279.1c0,0,0.6-10.2,10.2-10.2c0,0,10.2,0,10.2,10.2"/>
				</g>
				<g class="st2">
					<defs>
						<rect id="SVGID_17_" x="392.7" y="153.1" width="284.6" height="284.6"/>
					</defs>
					<clipPath id="SVGID_18_">
						<use xlink:href="#SVGID_17_"  style="overflow:visible;"/>
					</clipPath>
					<path class="st14" d="M588.2,327c0,0,0.6,9.7,10.2,9.7s10.2-9.7,10.2-9.7H588.2z"/>
					<path class="st15" d="M588.2,327c0,0,0.6,9.7,10.2,9.7s10.2-9.7,10.2-9.7H588.2z"/>
				</g>
				<rect x="464.1" y="279.1" class="st8" width="20.5" height="40.4"/>
				<rect x="464.1" y="279.1" class="st16" width="20.5" height="40.4"/>
				<g class="st2">
					<defs>
						<rect id="SVGID_19_" x="392.7" y="153.1" width="284.6" height="284.6"/>
					</defs>
					<clipPath id="SVGID_20_">
						<use xlink:href="#SVGID_19_"  style="overflow:visible;"/>
					</clipPath>
					<path class="st17" d="M484.6,319.6h-24.5c0,0-1.7,15.4,13.1,16.5c0,0,14.8,1.7,14.8-16.5H484.6z"/>
					<path class="st18" d="M484.6,319.6h-24.5c0,0-1.7,15.4,13.1,16.5c0,0,14.8,1.7,14.8-16.5H484.6z"/>
				</g>
				<g class="st2">
					<defs>
						<rect id="SVGID_21_" x="392.7" y="153.1" width="284.6" height="284.6"/>
					</defs>
					<clipPath id="SVGID_22_">
						<use xlink:href="#SVGID_21_"  style="overflow:visible;"/>
					</clipPath>
					<path class="st19" d="M470.7,336.3v2.8c0,0-11.4,4.6-5.7,13.7c0,0,4,9.1,14.8,3.4c0,0,5.7-4,1.1-7.4c0,0-2.3-1.1-3.4,1.7
						s-4.6,2.3-4.6,2.3s-3.4-1.1-3.4-2.8c0,0-1.7-5.1,5.1-5.7c0,0,1.7,0.6,2.3-3.4v-4.6"/>
				</g>
				<rect x="463.9" y="278.9" class="st20" width="21.1" height="9.1"/>
				<rect x="463.9" y="298.2" class="st20" width="21.1" height="9.1"/>
				<rect x="463.9" y="313" class="st20" width="21.1" height="6.3"/>
				<g class="st2">
					<defs>
						<rect id="SVGID_23_" x="392.7" y="153.1" width="284.6" height="284.6"/>
					</defs>
					<clipPath id="SVGID_24_">
						<use xlink:href="#SVGID_23_"  style="overflow:visible;"/>
					</clipPath>
					<path class="st21" d="M464.1,279.1c0,0,0-9.7,10.2-10.2c10.2-0.6,10.2,10.2,10.2,10.2"/>
					<path class="st22" d="M464.1,279.1c0,0,0-9.7,10.2-10.2c10.2-0.6,10.2,10.2,10.2,10.2"/>
				</g>
				<g class="st2">
					<defs>
						<path id="SVGID_25_" d="M491.5,335.5c0,0-1.1,12.5,12.5,14.2h66c0,0,13.1,0,14.2-13.7v-12h1.1v-14.8h-1.1V274l-92.8-1.1V335.5
							z"/>
					</defs>
					<clipPath id="SVGID_26_">
						<use xlink:href="#SVGID_25_"  style="overflow:visible;"/>
					</clipPath>
				</g>
				<g class="st2">
					<defs>
						<rect id="SVGID_27_" x="392.7" y="153.1" width="284.6" height="284.6"/>
					</defs>
					<clipPath id="SVGID_28_">
						<use xlink:href="#SVGID_27_"  style="overflow:visible;"/>
					</clipPath>
					
						<linearGradient id="SVGID_29_" gradientUnits="userSpaceOnUse" x1="1.9163" y1="-3.2119" x2="2.4855" y2="-3.2119" gradientTransform="matrix(166.041 0 0 -166.041 172.959 -222.003)">
						<stop  offset="0" style="stop-color:#00072A"/>
						<stop  offset="2.135525e-02" style="stop-color:#00072B"/>
						<stop  offset="0.8704" style="stop-color:#05004A"/>
						<stop  offset="1" style="stop-color:#05004C"/>
					</linearGradient>
					<path class="st23" d="M491.5,272.9L491.5,272.9v62.6c0,0,0,0.3,0,0.7c0,2.7,0.8,12.1,12.5,13.5h66c0,0,13.1,0,14.2-13.7v-12
						h1.1v-14.8h-1.1V274L491.5,272.9L491.5,272.9L491.5,272.9l92.8,1.1v35.3h1.1v14.8h-1.1v12c-1.1,13.7-14.2,13.7-14.2,13.7h-66
						c-11.7-1.5-12.5-10.9-12.5-13.5c0-0.4,0-0.7,0-0.7V272.9L491.5,272.9z"/>
				</g>
				<g class="st2">
					<defs>
						<rect id="SVGID_30_" x="392.7" y="153.1" width="284.6" height="284.6"/>
					</defs>
					<clipPath id="SVGID_31_">
						<use xlink:href="#SVGID_30_"  style="overflow:visible;"/>
					</clipPath>
					<path class="st24" d="M531.6,334.6c0,1.3-1,2.3-2.3,2.3s-2.3-1-2.3-2.3c0-1.3,1-2.3,2.3-2.3S531.6,333.4,531.6,334.6"/>
				</g>
				<g class="st2">
					<defs>
						<rect id="SVGID_32_" x="392.7" y="153.1" width="284.6" height="284.6"/>
					</defs>
					<clipPath id="SVGID_33_">
						<use xlink:href="#SVGID_32_"  style="overflow:visible;"/>
					</clipPath>
					<path class="st25" d="M545.8,334.6c0,1.3-1,2.3-2.3,2.3s-2.3-1-2.3-2.3c0-1.3,1-2.3,2.3-2.3S545.8,333.4,545.8,334.6"/>
				</g>
				<g class="st2">
					<defs>
						<rect id="SVGID_34_" x="392.7" y="153.1" width="284.6" height="284.6"/>
					</defs>
					<clipPath id="SVGID_35_">
						<use xlink:href="#SVGID_34_"  style="overflow:visible;"/>
					</clipPath>
					<path class="st26" d="M531.6,342.6c0,1.3-1,2.3-2.3,2.3s-2.3-1-2.3-2.3s1-2.3,2.3-2.3S531.6,341.4,531.6,342.6"/>
				</g>
				<g class="st2">
					<defs>
						<rect id="SVGID_36_" x="392.7" y="153.1" width="284.6" height="284.6"/>
					</defs>
					<clipPath id="SVGID_37_">
						<use xlink:href="#SVGID_36_"  style="overflow:visible;"/>
					</clipPath>
					<path class="st27" d="M546.4,342.6c0,1.3-1,2.3-2.3,2.3s-2.3-1-2.3-2.3s1-2.3,2.3-2.3S546.4,341.4,546.4,342.6"/>
				</g>
				<g class="st2">
					<defs>
						<rect id="SVGID_38_" x="392.7" y="153.1" width="284.6" height="284.6"/>
					</defs>
					<clipPath id="SVGID_39_">
						<use xlink:href="#SVGID_38_"  style="overflow:visible;"/>
					</clipPath>
					<path class="st28" d="M500.3,243.6l4.6-5.1l67.2,1.7c0,0,3.4,3.4,4,5.1c0.6,1.7,0.6,18.2,0.6,18.2l-78-1.7L500.3,243.6z"/>
					<path class="st29" d="M500.3,243.6l4.6-5.1l67.2,1.7c0,0,3.4,3.4,4,5.1c0.6,1.7,0.6,18.2,0.6,18.2l-78-1.7L500.3,243.6z"/>
				</g>
				<g class="st2">
					<defs>
						<rect id="SVGID_40_" x="392.7" y="153.1" width="284.6" height="284.6"/>
					</defs>
					<clipPath id="SVGID_41_">
						<use xlink:href="#SVGID_40_"  style="overflow:visible;"/>
					</clipPath>
					<path class="st30" d="M521.3,247.3c0,2.4-1.9,4.3-4.3,4.3s-4.3-1.9-4.3-4.3c0-2.4,1.9-4.3,4.3-4.3S521.3,244.9,521.3,247.3"/>
					<circle class="st31" cx="517.1" cy="247.3" r="4.3"/>
				</g>
				<g class="st2">
					<defs>
						<rect id="SVGID_42_" x="392.7" y="153.1" width="284.6" height="284.6"/>
					</defs>
					<clipPath id="SVGID_43_">
						<use xlink:href="#SVGID_42_"  style="overflow:visible;"/>
					</clipPath>
					<path class="st32" d="M519.6,248.7c0,0.6-0.5,1.1-1.1,1.1s-1.1-0.5-1.1-1.1c0-0.6,0.5-1.1,1.1-1.1S519.6,248.1,519.6,248.7"/>
					<circle class="st33" cx="518.5" cy="248.7" r="1.1"/>
				</g>
				<g class="st2">
					<defs>
						<rect id="SVGID_44_" x="392.7" y="153.1" width="284.6" height="284.6"/>
					</defs>
					<clipPath id="SVGID_45_">
						<use xlink:href="#SVGID_44_"  style="overflow:visible;"/>
					</clipPath>
					<path class="st34" d="M564.9,247.6c0,3.3-2.7,6-6,6s-6-2.7-6-6c0-3.3,2.7-6,6-6S564.9,244.3,564.9,247.6"/>
					<circle class="st35" cx="558.9" cy="247.6" r="6"/>
				</g>
				<g class="st2">
					<defs>
						<rect id="SVGID_46_" x="392.7" y="153.1" width="284.6" height="284.6"/>
					</defs>
					<clipPath id="SVGID_47_">
						<use xlink:href="#SVGID_46_"  style="overflow:visible;"/>
					</clipPath>
					<path class="st36" d="M554.1,239.9l8.5,1.7h13.7c0,0,1.7,1.7-0.6,2.3h-12l-8.5-1.7l-13.7-2.8L554.1,239.9z"/>
					<path class="st37" d="M554.1,239.9l8.5,1.7h13.7c0,0,1.7,1.7-0.6,2.3h-12l-8.5-1.7l-13.7-2.8L554.1,239.9z"/>
				</g>
				<g class="st2">
					<defs>
						<rect id="SVGID_48_" x="392.7" y="153.1" width="284.6" height="284.6"/>
					</defs>
					<clipPath id="SVGID_49_">
						<use xlink:href="#SVGID_48_"  style="overflow:visible;"/>
					</clipPath>
					<path class="st38" d="M531.6,303.6c-0.1,1.2-1.3,2.1-2.5,2c-1.2-0.1-2.1-1.3-2-2.5c0.1-1.2,1.3-2.1,2.5-2
						C530.8,301.2,531.7,302.3,531.6,303.6"/>
				</g>
				<g class="st2">
					<defs>
						<rect id="SVGID_50_" x="392.7" y="153.1" width="284.6" height="284.6"/>
					</defs>
					<clipPath id="SVGID_51_">
						<use xlink:href="#SVGID_50_"  style="overflow:visible;"/>
					</clipPath>
					<path class="st39" d="M545.8,303.3c0,1.3-1,2.3-2.3,2.3s-2.3-1-2.3-2.3c0-1.3,1-2.3,2.3-2.3S545.8,302.1,545.8,303.3"/>
				</g>
				<g class="st2">
					<defs>
						<rect id="SVGID_52_" x="392.7" y="153.1" width="284.6" height="284.6"/>
					</defs>
					<clipPath id="SVGID_53_">
						<use xlink:href="#SVGID_52_"  style="overflow:visible;"/>
					</clipPath>
					<path class="st40" d="M533.9,348.9v-56.3h2.3v56.3c0,0,0,0.6-1.1,0.6S533.9,348.9,533.9,348.9"/>
				</g>
				<g class="st2">
					<defs>
						<rect id="SVGID_54_" x="392.7" y="153.1" width="284.6" height="284.6"/>
					</defs>
					<clipPath id="SVGID_55_">
						<use xlink:href="#SVGID_54_"  style="overflow:visible;"/>
					</clipPath>
					<path class="st41" d="M537.8,348.9v-56.3h2.3v56.3c0,0,0,0.6-1.1,0.6S537.8,348.9,537.8,348.9"/>
				</g>
				<rect x="531" y="342" class="st42" width="12" height="1.1"/>
				<rect x="530.4" y="334.1" class="st42" width="12" height="1.1"/>
				<rect x="530.4" y="302.8" class="st42" width="12" height="1.1"/>
				<g class="st2">
					<defs>
						<rect id="SVGID_56_" x="392.7" y="153.1" width="284.6" height="284.6"/>
					</defs>
					<clipPath id="SVGID_57_">
						<use xlink:href="#SVGID_56_"  style="overflow:visible;"/>
					</clipPath>
					<path class="st43" d="M491.5,272.9c0,0-5.1-20.5,8-29.6c0,0,4,0,2.8,4c0,0-1.7,10.2,1.7,8.5c0,0,8.5,5.1,10.8,4
						c0,0,10.8-5.1,14.8-4.6c0,0,6.3,1.1,7.4,2.8c0,0,4-2.3,6.3-2.3c0,0,4-1.7,10.2,0.6c6.3,2.3,12,5.1,12.5,4.6
						c0.6-0.6,4,1.1,8.5-5.1c0,0,1.1-2.8,1.1-9.7c0,0,3.4-4.6,6.8,1.7c3.4,6.3,2.8,14.2,2.8,14.2l-1.7,11.4l-1.1,10.2
						c0,0,0,8.5-5.7,8.5s-5.7,1.7-9.7-5.7c0,0,0,4.6-0.6,6.3c0,0-2.8,5.1-4,0l-0.6-2.3c0,0,0,6.8-2.3,8.5s-7.4,4.6-12.5-0.6
						c0,0-2.8,5.1-5.7-0.6l-1.1-4c0,0-0.6,4.6-1.7,4.6s-3.4,0.6-3.4-6.3c0,0-1.7,10.2-9.7,9.1c0,0-9.1,1.7-6.8-10.2
						c0,0-3.4,8-5.1,6.8c0,0-2.2-0.5-0.7-5.9c0-0.1,0.1-0.2,0.1-0.4c0,0-2.3,6.3-11.4,4.6c0,0-5.7-1.1-6.8-8.5
						C494.9,287.7,491.5,279.7,491.5,272.9"/>
					<path class="st44" d="M491.5,272.9c0,0-5.1-20.5,8-29.6c0,0,4,0,2.8,4c0,0-1.7,10.2,1.7,8.5c0,0,8.5,5.1,10.8,4
						c0,0,10.8-5.1,14.8-4.6c0,0,6.3,1.1,7.4,2.8c0,0,4-2.3,6.3-2.3c0,0,4-1.7,10.2,0.6c6.3,2.3,12,5.1,12.5,4.6
						c0.6-0.6,4,1.1,8.5-5.1c0,0,1.1-2.8,1.1-9.7c0,0,3.4-4.6,6.8,1.7c3.4,6.3,2.8,14.2,2.8,14.2l-1.7,11.4l-1.1,10.2
						c0,0,0,8.5-5.7,8.5s-5.7,1.7-9.7-5.7c0,0,0,4.6-0.6,6.3c0,0-2.8,5.1-4,0l-0.6-2.3c0,0,0,6.8-2.3,8.5s-7.4,4.6-12.5-0.6
						c0,0-2.8,5.1-5.7-0.6l-1.1-4c0,0-0.6,4.6-1.7,4.6s-3.4,0.6-3.4-6.3c0,0-1.7,10.2-9.7,9.1c0,0-9.1,1.7-6.8-10.2
						c0,0-3.4,8-5.1,6.8c0,0-2.2-0.5-0.7-5.9c0-0.1,0.1-0.2,0.1-0.4c0,0-2.3,6.3-11.4,4.6c0,0-5.7-1.1-6.8-8.5
						C494.9,287.7,491.5,279.7,491.5,272.9z"/>
				</g>
				<g class="st2">
					<defs>
						<rect id="SVGID_58_" x="392.7" y="153.1" width="284.6" height="284.6"/>
					</defs>
					<clipPath id="SVGID_59_">
						<use xlink:href="#SVGID_58_"  style="overflow:visible;"/>
					</clipPath>
					<path class="st45" d="M526.5,266.9c0,0,5.7-2.3,10.2-2.3c0,0,3.4-0.6,8,2.8c0,0-1.7,1.1-4.6,1.1
						C537.3,268.6,525.9,268,526.5,266.9"/>
				</g>
				<g class="st2">
					<defs>
						<rect id="SVGID_60_" x="392.7" y="153.1" width="284.6" height="284.6"/>
					</defs>
					<clipPath id="SVGID_61_">
						<use xlink:href="#SVGID_60_"  style="overflow:visible;"/>
					</clipPath>
					<path class="st46" d="M490.6,309.2h32.3c0,0-0.6-3.6,2.9-3.6h20.7c0,0,2.9,0.6,2.3,3.6h36.9v15h-36.9c0,0,0,3-3.5,3h-19.6
						c0,0-2.6,0.5-2.9-2.5c0-0.2,0-0.3,0-0.5c0-3.6,0,0,0,0h-32.3V309.2z"/>
				</g>
				<g class="st2">
					<defs>
						<rect id="SVGID_62_" x="392.7" y="153.1" width="284.6" height="284.6"/>
					</defs>
					<clipPath id="SVGID_63_">
						<use xlink:href="#SVGID_62_"  style="overflow:visible;"/>
					</clipPath>
					<path class="st47" d="M531.6,326.7c0,1.3-1,2.3-2.3,2.3s-2.3-1-2.3-2.3s1-2.3,2.3-2.3S531.6,325.4,531.6,326.7"/>
				</g>
				<g class="st2">
					<defs>
						<rect id="SVGID_64_" x="392.7" y="153.1" width="284.6" height="284.6"/>
					</defs>
					<clipPath id="SVGID_65_">
						<use xlink:href="#SVGID_64_"  style="overflow:visible;"/>
					</clipPath>
					<path class="st48" d="M545.8,326.7c0,1.3-1,2.3-2.3,2.3s-2.3-1-2.3-2.3s1-2.3,2.3-2.3S545.8,325.4,545.8,326.7"/>
				</g>
				<g class="st2">
					<defs>
						<rect id="SVGID_66_" x="392.7" y="153.1" width="284.6" height="284.6"/>
					</defs>
					<clipPath id="SVGID_67_">
						<use xlink:href="#SVGID_66_"  style="overflow:visible;"/>
					</clipPath>
					<path class="st49" d="M522.5,324.2v-15.6c0,0-0.6-3,4.1-3h19c0,0,4.1-0.6,3.6,4.2v14.4c0,0,0.6,3-3.6,3h-20.2
						C525.5,327.2,522.5,327.8,522.5,324.2"/>
				</g>
				<rect x="529.9" y="313.6" class="st2" width="13.1" height="6.8"/>
				<g class="st2">
					<defs>
						<path id="SVGID_68_" d="M529.3,315.3c0,0-1.7,0-1.7,1.7c0,1.7,1.7,1.7,1.7,1.7h14.2c0,0,1.7,0,1.7-1.7c0-1.7-2.3-1.7-2.3-1.7
							H529.3z"/>
					</defs>
					<clipPath id="SVGID_69_">
						<use xlink:href="#SVGID_68_"  style="overflow:visible;"/>
					</clipPath>
				</g>
				<polygon class="st50" points="545.8,359.1 552.1,365.4 552.1,377.3 558.9,377.3 558.9,365.4 564.6,359.1 				"/>
				<rect x="545.2" y="350" class="st51" width="19.9" height="9.1"/>
				<g class="st2">
					<defs>
						<rect id="SVGID_70_" x="392.7" y="153.1" width="284.6" height="284.6"/>
					</defs>
					<clipPath id="SVGID_71_">
						<use xlink:href="#SVGID_70_"  style="overflow:visible;"/>
					</clipPath>
					<path class="st52" d="M552.1,377.3v2.8c0,0,0.6,2.3,3.4,2.3c0,0,3.4,0,3.4-2.3v-2.8H552.1"/>
				</g>
				<rect x="510.5" y="350" class="st53" width="20.5" height="4"/>
				<g class="st2">
					<defs>
						<rect id="SVGID_72_" x="392.7" y="153.1" width="284.6" height="284.6"/>
					</defs>
					<clipPath id="SVGID_73_">
						<use xlink:href="#SVGID_72_"  style="overflow:visible;"/>
					</clipPath>
					<path class="st54" d="M480.4,237.9l111,2.8c0,0,7.4-22.8-13.7-21.6c0,0-6.8-22.8-40.4-21.6c0,0-34.7-0.6-38.7,21.6
						C498.6,219.1,478.7,216.8,480.4,237.9"/>
					<path class="st55" d="M480.4,237.9l111,2.8c0,0,7.4-22.8-13.7-21.6c0,0-6.8-22.8-40.4-21.6c0,0-34.7-0.6-38.7,21.6
						C498.6,219.1,478.7,216.8,480.4,237.9z"/>
				</g>
				<g class="st2">
					<defs>
						<rect id="SVGID_74_" x="392.7" y="153.1" width="284.6" height="284.6"/>
					</defs>
					<clipPath id="SVGID_75_">
						<use xlink:href="#SVGID_74_"  style="overflow:visible;"/>
					</clipPath>
					<path class="st56" d="M482.2,238.5l107.4,2.8c0,0,7.2-22.1-13.2-21c0,0-6.6-22.1-39.1-21c0,0-33.6-0.6-37.4,21
						C499.8,220.3,480.5,218,482.2,238.5"/>
					<path class="st57" d="M482.2,238.5l107.4,2.8c0,0,7.2-22.1-13.2-21c0,0-6.6-22.1-39.1-21c0,0-33.6-0.6-37.4,21
						C499.8,220.3,480.5,218,482.2,238.5z"/>
				</g>
				<g class="st2">
					<text transform="matrix(1 0 0 1 530.2598 220.5762)" class="st0 st58 st59">z</text>
				</g>
				<g class="st2">
					<text transform="matrix(1 0 0 1 524.9121 230.2666)" class="st0 st58 st60">ZLAUR</text>
				</g>
			</g>
		</g>
	</g>
</g>
<g>
</g>
<g>
</g>
<g>
</g>
<g>
</g>
<g>
</g>
<g>
</g>
<g>
</g>
<g>
</g>
<g>
</g>
<g>
</g>
<g>
</g>
</svg>
